WOLFMOTHER 
18. November 2006 
Cologne, Live Music Hall

Andrew Stockdale - vocals, guitar
Chris Ross - bass, keyboards
Myles Heskett - drums

Playlist

00. Intro (Warm-Up)
01. Dimension
02. Pyramid
03. Apple Tree
04. White Unicorn
05. Love Train
06. Woman
07. Mind's Eye
---------------------------
08. Vagabond
09. Colossal
10. Joker & The Thief


Duration: 01:10:33.6, start: 1.000000, bitrate: 2837 kb/s
Stream #0.0[0x1e0]: Video: mpeg2video, yuv420p, 704x576, 7000 kb/s, 25.00 fps(r)
Stream #0.1[0x1c0]: Audio: mp2, 48000 Hz, stereo, 192 kb/s

